<svg width="40" height="41" viewBox="0 0 40 41" fill="none" xmlns="http://www.w3.org/2000/svg">
<rect y="0.709167" width="40" height="40" rx="10" fill="#1A1F16"/>
<path d="M10.6666 29.2806H11.1666C11.2108 29.2806 11.2532 29.2618 11.2845 29.2283C11.3157 29.1948 11.3333 29.1494 11.3333 29.102V21.4909C11.3329 21.4625 11.3388 21.4344 11.3506 21.4089C11.3624 21.3835 11.3797 21.3614 11.4011 21.3445C11.4224 21.3277 11.4472 21.3165 11.4734 21.312C11.4996 21.3075 11.5264 21.3097 11.5516 21.3185C11.934 21.4473 12.331 21.5191 12.7316 21.5319C12.7808 21.5319 12.8275 21.5342 12.8733 21.5342C13.6438 21.5361 14.402 21.3265 15.0754 20.9252C15.1264 20.8949 15.1837 20.8789 15.2421 20.8789C15.3004 20.8789 15.3578 20.8949 15.4087 20.9252C16.082 21.3265 16.84 21.5361 17.6104 21.5342C18.3765 21.5353 19.1298 21.3232 19.7963 20.9185C19.8477 20.8874 19.9058 20.871 19.9648 20.871C20.0239 20.871 20.082 20.8874 20.1334 20.9185C20.8099 21.3247 21.5729 21.5369 22.3484 21.5346C23.1196 21.5352 23.8776 21.3197 24.5472 20.9096C24.599 20.878 24.6576 20.8614 24.7172 20.8614C24.7768 20.8614 24.8354 20.878 24.8872 20.9096C25.5567 21.3197 26.3147 21.5352 27.086 21.5346C27.1314 21.5346 27.1772 21.5346 27.2264 21.5324H27.2289C27.6436 21.519 28.0543 21.4425 28.4489 21.3052C28.4739 21.2965 28.5004 21.2943 28.5263 21.2987C28.5523 21.3031 28.5769 21.3141 28.5981 21.3306C28.6194 21.3471 28.6366 21.3688 28.6486 21.3939C28.6605 21.4189 28.6668 21.4467 28.6668 21.4748V29.102C28.6668 29.1494 28.6844 29.1948 28.7156 29.2283C28.7469 29.2618 28.7893 29.2806 28.8335 29.2806H29.3126C29.6727 29.2806 29.9835 29.577 29.9993 29.9627C30.0034 30.0591 29.9892 30.1554 29.9575 30.2458C29.9259 30.3361 29.8775 30.4186 29.8153 30.4884C29.7531 30.5582 29.6783 30.6137 29.5955 30.6516C29.5127 30.6896 29.4235 30.7091 29.3335 30.7092H10.6874C10.3274 30.7092 10.0166 30.4127 10.0008 30.027C9.9967 29.9306 10.0109 29.8344 10.0426 29.744C10.0742 29.6537 10.1226 29.5711 10.1848 29.5014C10.247 29.4316 10.3218 29.3761 10.4046 29.3381C10.4874 29.3002 10.5765 29.2806 10.6666 29.2806ZM21.3334 26.2449C21.3334 26.2922 21.3509 26.3377 21.3822 26.3712C21.4135 26.4046 21.4559 26.4235 21.5001 26.4235H25.1668C25.211 26.4235 25.2534 26.4046 25.2846 26.3712C25.3159 26.3377 25.3334 26.2922 25.3334 26.2449V23.3877C25.3334 23.2457 25.2808 23.1094 25.187 23.0089C25.0932 22.9085 24.966 22.852 24.8334 22.852H21.8334C21.7008 22.852 21.5736 22.9085 21.4798 23.0089C21.3861 23.1094 21.3334 23.2457 21.3334 23.3877V26.2449ZM14.8333 29.2806H17.8333C17.8776 29.2806 17.9199 29.2618 17.9512 29.2283C17.9825 29.1948 18 29.1494 18 29.102V23.3877C18 23.2457 17.9473 23.1094 17.8536 23.0089C17.7598 22.9085 17.6326 22.852 17.5 22.852H15.1666C15.034 22.852 14.9069 22.9085 14.8131 23.0089C14.7193 23.1094 14.6666 23.2457 14.6666 23.3877V29.102C14.6666 29.1494 14.6842 29.1948 14.7155 29.2283C14.7467 29.2618 14.7891 29.2806 14.8333 29.2806ZM10.1428 16.8824L11.9312 12.4855C12.3995 11.4065 13.4691 10.7092 14.6562 10.7092H25.3459C26.533 10.7092 27.6026 11.4065 28.071 12.4855L29.8593 16.8824C30.2343 17.7489 29.7389 18.6386 29.7385 18.6391L29.7268 18.6592C29.7064 18.694 29.6702 18.7485 29.6481 18.7833C29.646 18.786 29.6443 18.7891 29.6422 18.7922L29.4339 19.0623C29.4261 19.0725 29.4178 19.0822 29.4089 19.0913L29.2006 19.3069L29.1831 19.323C29.0607 19.4354 28.9298 19.5366 28.7918 19.6257V19.6279C28.3383 19.9222 27.8217 20.0863 27.2918 20.1043H27.1889C26.3871 20.1059 25.6145 19.7819 25.0268 19.1976L25.013 19.1837C24.9516 19.1218 24.8705 19.0872 24.7861 19.0872C24.7018 19.0872 24.6206 19.1218 24.5593 19.1837L24.5455 19.1976C23.9515 19.7809 23.175 20.1045 22.3692 20.1045C21.5635 20.1045 20.787 19.7809 20.193 19.1976C20.1313 19.1364 20.0505 19.1025 19.9665 19.1025C19.8825 19.1025 19.8017 19.1364 19.74 19.1976C19.1478 19.779 18.3741 20.1024 17.5708 20.1043C16.7675 20.1062 15.9925 19.7865 15.3979 19.2078C15.3372 19.1476 15.2575 19.1141 15.1748 19.1141C15.092 19.1141 15.0123 19.1476 14.9516 19.2078C14.3564 19.79 13.578 20.1102 12.772 20.1043H12.6683C12.1517 20.0836 11.649 19.9189 11.2099 19.6266C11.1704 19.6011 11.1324 19.5743 11.0941 19.5476C10.798 19.3337 10.5402 19.0643 10.3333 18.7525L10.2608 18.6351C10.2535 18.6232 10.2469 18.6107 10.2408 18.5976C10.1716 18.4467 9.80075 17.6708 10.1428 16.8824Z" fill="white"/>
</svg>
